<svg
  xmlns="http://www.w3.org/2000/svg"
  width="20"
  height="20"
  viewBox="0 0 24 24"
  fill="#ffffff"
>
  <path
    d="M12 0C5.373 0 0 5.373 0 12c0 5.303 3.438 9.8 8.205 11.387.6.11.82-.26.82-.577v-2.234c-3.338.725-4.043-1.416-4.043-1.416-.546-1.387-1.334-1.757-1.334-1.757-1.09-.745.084-.729.084-.729 1.205.085 1.84 1.237 1.84 1.237 1.07 1.832 2.807 1.303 3.492.997.108-.775.42-1.303.763-1.602-2.665-.305-5.466-1.334-5.466-5.93 0-1.31.467-2.382 1.235-3.22-.123-.303-.535-1.527.117-3.176 0 0 1.007-.322 3.3 1.23a11.47 11.47 0 013.003-.403c1.018.005 2.042.138 3.003.403 2.29-1.553 3.296-1.23 3.296-1.23.654 1.65.242 2.873.12 3.176.77.838 1.232 1.91 1.232 3.22 0 4.61-2.804 5.62-5.475 5.92.43.373.823 1.1.823 2.222v3.293c0 .32.216.694.825.577C20.565 21.797 24 17.302 24 12 24 5.373 18.627 0 12 0z"
  />
</svg>
